<svg class="syi-icon" xmlns="http://www.w3.org/2000/svg" width="86" height="37" viewBox="0 0 86 37"><g id="Page-1" stroke="none" stroke-width="1" fill="none" fill-rule="evenodd"><g id="HUB09-Copy-6" transform="translate(-353.000000, -314.000000)"><g id="Group-6" transform="translate(320.000000, 264.000000)"><g id="Group-12" transform="translate(24.000000, 12.000000)"><rect id="Rectangle-3" x="0" y="0" width="103" height="75"></rect><g id="Page-1" transform="translate(9.000000, 38.000000)"><g id="Group-7" opacity="0.4" transform="translate(0.086111, 35.851362)" stroke="#AFAFAF" stroke-width="0.552780556" stroke-linecap="round"><path d="M0.603796667,0 L76.534805,0" id="Stroke-3"></path><path d="M80.2180792,0.176306693 L85.5588681,0.176306693" id="Stroke-5"></path></g><path d="M81.3060561,26.4373602 C81.3315006,31.8950473 72.4921006,33.5443065 68.5373978,34.4356948 C63.8861533,35.4828535 59.1032339,35.802024 54.3527561,36.0296395 C48.4413756,36.3132053 42.4600228,36.0684232 36.5422811,36.0735096 C30.4279811,36.0798675 24.313045,36.0747812 18.198745,36.0728738 L11.8013756,36.0728738 C11.8013756,36.0728738 7.96435333,36.4104823 8.52731167,33.5926271 C9.15260889,30.4619594 8.947145,28.5329493 10.6392006,28.5329493 C10.6392006,28.5329493 21.4753533,28.5571096 36.7617394,30.9616963 C52.0474894,33.3662831 75.5416172,29.5120777 81.3060561,26.4373602" id="Fill-8" fill="#F7D032"></path><path d="M15.5283506,16.0659107 C15.5283506,16.0659107 16.6001978,13.3771224 19.5104061,11.4601925 L16.9386089,8.479573 L14.9908367,6.18625082 L13.4654422,6.18625082 L11.8172783,8.73770685 L10.4763561,14.1000244 L10.4763561,14.855352 L12.67412,15.5515504 L15.5283506,16.0659107 Z" id="Fill-10" fill="#F7D032"></path><path d="M39.8723228,27.269365 C39.8723228,28.0227852 39.2603839,28.6350584 38.50532,28.6350584 C37.7515283,28.6350584 37.1395894,28.0227852 37.1395894,27.269365 C37.1395894,26.5153089 37.7515283,25.9036716 38.50532,25.9036716 C39.2603839,25.9036716 39.8723228,26.5153089 39.8723228,27.269365" id="Fill-12" fill="#F7D032"></path><path d="M46.4314553,27.269365 C46.4314553,28.0227852 45.8195164,28.6350584 45.0644525,28.6350584 C44.3106608,28.6350584 43.6987219,28.0227852 43.6987219,27.269365 C43.6987219,26.5153089 44.3106608,25.9036716 45.0644525,25.9036716 C45.8195164,25.9036716 46.4314553,26.5153089 46.4314553,27.269365" id="Fill-14" fill="#F7D032"></path><path d="M9.64584944,21.4204715 C9.64584944,21.4204715 18.3465772,21.8248388 21.3591994,23.6324116 C24.3711856,25.4374412 24.41953,27.0676264 24.7477633,28.3093392 L24.7477633,29.1161665 C24.7477633,29.1161665 16.9573106,27.5254007 10.639455,28.53314" id="Fill-16" fill="#AFAFAF" opacity="0.4"></path><path d="M59.9256619,30.6817546 C59.9256619,30.6817546 62.1577758,25.2723881 65.3421481,23.3249398 C68.5265203,21.3768558 73.5231731,22.677062 76.2285536,19.7415842 C76.2285536,19.7415842 82.2245369,20.3150737 81.2869092,25.4624916 C80.3486453,30.6086379 80.8397231,26.9731468 80.8397231,26.9731468 C80.8397231,26.9731468 69.1359147,30.7288037 59.9256619,30.6817546" id="Fill-18" fill="#AFAFAF" opacity="0.4"></path><path d="M9.63331806,31.0996644 C9.63331806,31.0996644 20.4694708,31.1225532 35.7558569,33.5284115 C50.9035708,35.9094738 74.1076319,32.147459 80.1354208,29.0886364 C80.7263681,28.2786302 81.0749569,27.342736 81.0698681,26.2536146 C75.3054292,29.3270605 51.8119375,33.181266 36.5255514,30.7785866 C21.2391653,28.373364 10.4030125,28.3498395 10.4030125,28.3498395 C9.08371806,28.3498395 8.91832917,29.5222504 8.61299583,31.5218341 C8.84772083,31.2458979 9.16895694,31.0996644 9.63331806,31.0996644" id="Fill-20" fill="#AFAFAF" opacity="0.4"></path><polygon id="Fill-22" fill="#AFAFAF" opacity="0.4" points="47.99737 31.7124462 58.3125478 20.655289 60.4231644 20.655289 50.4832922 31.6488665"></polygon><polygon id="Fill-24" fill="#AFAFAF" opacity="0.4" points="28.2858133 25.8301098 41.0423856 12.9463059 43.0836661 13.4504935 29.3633856 27.5340475"></polygon><path d="M30.8622542,9.22237541 C30.8622542,9.22237541 33.9384875,-2.60918335 39.5012792,1.91706023 C45.0647069,6.44266802 43.6983403,5.57035362 43.6983403,5.57035362 C43.6983403,5.57035362 39.6590347,4.98923455 37.6813653,5.77317307 C35.7043319,6.55774739 30.4704097,10.414496 30.4704097,10.414496 L30.8622542,9.22237541 Z" id="Fill-26" fill="#F7D032"></path><path d="M10.0813311,28.5893445 C19.1669061,27.6432776 27.8434617,29.5729235 36.7617394,30.963413 C42.7373672,31.8961282 48.8669339,31.893585 54.8979033,31.62655 C59.9403561,31.403385 64.9713589,30.866136 69.9362061,29.9505873 C73.6612728,29.26329 77.96202,28.3324823 81.3060561,26.4409842" id="Stroke-28" stroke="#484848" stroke-width="0.636111111" stroke-linecap="round"></path><path d="M10.5984894,14.6949402 C10.5984894,14.6949402 18.0066394,15.2398188 21.5205172,17.0473916 C25.0350311,18.8536928 25.5375589,20.7610858 25.938945,21.464278 C26.2347367,21.9818173 27.8021144,25.4202111 29.3039728,27.6423239" id="Stroke-30" stroke="#484848" stroke-width="0.954166667" stroke-linecap="round"></path><path d="M29.9718894,11.376903 C26.8339533,13.9811302 19.6109117,13.9830376 16.84192,9.27686327 C13.8299339,4.15742047 12.5971506,6.67327183 10.6392006,14.6525325" id="Stroke-32" stroke="#484848" stroke-width="0.954166667" stroke-linecap="round"></path><path d="M65.0628317,17.8590509 C63.0355456,20.3189521 60.02674,21.21797 56.9365122,20.938219 C53.4563483,20.6222275 51.1714372,19.0397272 48.4399761,17.0414151 C46.9190344,15.9281334 44.95854,13.8369949 43.0839206,13.4504299 C40.2315983,12.8635886 37.1744483,13.8662416 34.3074956,13.358875 C32.7019511,13.0734019 31.1810094,12.4859248 29.930415,11.4063404" id="Stroke-34" stroke="#484848" stroke-width="0.954166667" stroke-linecap="round"></path><path d="M30.8622542,10.415704 C30.8622542,10.415704 38.0802069,2.78994685 44.5965292,6.08274296" id="Stroke-36" stroke="#484848" stroke-width="0.954166667" stroke-linecap="round"></path><path d="M45.5366378,10.8435323 C45.0671878,11.2784179 44.3025822,11.2129307 43.8248628,10.6985704 C43.3503239,10.1867533 43.3439628,9.41870973 43.8127767,8.98318833 L46.8304878,6.19012918 C47.2999378,5.75524358 48.0658156,5.82009494 48.5416267,6.33381946 C49.0180739,6.84817977 49.0231628,7.61558755 48.5543489,8.04983735 L45.5366378,10.8435323 L45.5366378,10.8435323 Z" id="Stroke-38" stroke="#484848" stroke-width="0.954166667" stroke-linecap="round"></path><path d="M49.7957197,13.3277209 C49.3262697,13.7626065 48.5610281,13.6977552 48.0845808,13.1833949 C47.6087697,12.6709419 47.6036808,11.9022626 48.0724947,11.467377 L50.4426447,9.4150221 C50.9114586,8.98267969 51.6773364,9.04498786 52.1537836,9.55934817 C52.6295947,10.0737085 52.6353197,10.8417521 52.1671419,11.2760019 L49.7957197,13.3277209 L49.7957197,13.3277209 Z" id="Stroke-40" stroke="#484848" stroke-width="0.954166667" stroke-linecap="round"></path><path d="M54.1193033,15.6747044 C53.6975617,16.1553675 52.9297756,16.1699908 52.4030756,15.7084017 C51.8763756,15.2461768 51.7924089,14.4825838 52.2135144,14.0025566 L53.4393006,12.8199729 C53.8616783,12.3393099 54.6301006,12.3240507 55.1561644,12.785004 C55.6835006,13.2485005 55.7681033,14.0108219 55.3457256,14.4927566 L54.1193033,15.6747044 L54.1193033,15.6747044 Z" id="Stroke-42" stroke="#484848" stroke-width="0.954166667" stroke-linecap="round"></path><path d="M58.6495594,16.496155 C58.6495594,17.1472118 58.1209511,17.6749239 57.4695733,17.6749239 C56.8175594,17.6749239 56.2895872,17.1472118 56.2895872,16.496155 C56.2895872,15.8450982 56.8175594,15.3173861 57.4695733,15.3173861 C58.1209511,15.3173861 58.6495594,15.8450982 58.6495594,16.496155 L58.6495594,16.496155 Z" id="Stroke-44" stroke="#484848" stroke-width="0.954166667" stroke-linecap="round"></path><path d="M42.8182169,13.7250945 L29.3040364,27.6427054" id="Stroke-46" stroke="#484848" stroke-width="0.954166667" stroke-linecap="round"></path><path d="M47.99737,31.7888691 L57.6917033,21.0998388" id="Stroke-48" stroke="#484848" stroke-width="0.954166667" stroke-linecap="round"></path><path d="M81.3066922,26.4596767 C81.3391339,23.7931412 82.1088283,20.8989903 76.9378811,19.9974292 C74.0200394,19.4906984 69.0132089,18.5802362 64.9751756,17.8420751" id="Stroke-50" stroke="#484848" stroke-width="0.954166667" stroke-linecap="round"></path></g></g></g></g></g></svg>