<svg class="syi-icon" xmlns="http://www.w3.org/2000/svg" width="73" height="48" viewBox="0 0 73 48"><g id="Page-1" stroke="none" stroke-width="1" fill="none" fill-rule="evenodd"><g id="HUB09-Copy-6" transform="translate(-521.000000, -302.000000)"><g id="Group-6" transform="translate(320.000000, 264.000000)"><g id="Group-11" transform="translate(187.000000, 12.000000)"><rect id="Rectangle-3-Copy" x="0" y="0" width="103" height="75"></rect><g id="Page-1" transform="translate(14.000000, 26.000000)"><path d="M10.0162781,41.4051068 L10.0162781,46.3643286 C10.0162781,46.9791449 10.5149892,47.4769745 11.1294725,47.4769745 L17.4861308,47.4769745 C18.1012503,47.4769745 18.5993253,46.9791449 18.5993253,46.3643286 L18.5993253,41.9582507" id="Fill-15" fill="#F7D032"></path><path d="M53.0318925,42.0123571 L53.0318925,46.3643921 C53.0318925,46.9792085 53.5306036,47.4770381 54.1450869,47.4770381 L60.5017453,47.4770381 C61.1162286,47.4770381 61.6149397,46.9792085 61.6149397,46.3643921 L61.6149397,41.9583143" id="Fill-17" fill="#F7D032"></path><path d="M52.6560781,2.35816537 C52.1083864,1.29002529 51.6510225,0.728615953 50.6084364,0.728615953 L21.5254364,0.728615953 C20.4822142,0.728615953 19.9974975,1.35614825 19.5554003,2.44272646 L15.7088364,10.6209918" id="Stroke-19" stroke="#484848" stroke-width="0.954166667" stroke-linecap="round"></path><path d="M51.0803672,4.99888739 C50.6688033,3.98161113 50.2349756,3.11183992 49.1930256,3.11183992 L23.0825728,3.11183992 C22.0399867,3.11183992 21.6042506,3.94727805 21.194595,4.99888739 L16.9472811,14.747573 C16.3277089,15.9307925 17.7926728,16.6352563 18.835895,16.6352563 L53.4397033,16.6352563 C54.4822894,16.6352563 55.8397506,15.7915528 55.3276811,14.747573 L51.0803672,4.99888739 Z" id="Fill-21" fill="#F7D032"></path><path d="M21.1946586,4.99888739 C21.6043142,3.94727805 22.0400503,3.11183992 23.0826364,3.11183992 L49.1930892,3.11183992 C50.2350392,3.11183992 50.6688669,3.98161113 51.0804308,4.99888739 L55.3277447,14.747573 C55.8398142,15.7915528 54.4823531,16.6352563 53.4397669,16.6352563 L19.9752336,16.6352563" id="Stroke-23" stroke="#484848" stroke-width="0.954166667" stroke-linecap="round"></path><path d="M59.7775328,17.4925023 L62.89893,24.2434019" id="Stroke-25" stroke="#484848" stroke-width="0.954166667" stroke-linecap="round"></path><path d="M52.4964142,2.01858584 L58.7449336,15.2978559" id="Stroke-27" stroke="#484848" stroke-width="0.608122222" stroke-linecap="round"></path><path d="M12.5068439,17.6136217 L9.44015222,23.9181914" id="Stroke-29" stroke="#484848" stroke-width="0.954166667" stroke-linecap="round"></path><polygon id="Stroke-31" stroke="#484848" stroke-width="0.954166667" stroke-linecap="round" points="30.4749472 38.549358 41.6113444 38.549358 41.6113444 34.7758988 30.4749472 34.7758988"></polygon><polygon id="Fill-33" fill="#B3B3B3" opacity="0.4" points="47.3129356 29.9302941 24.444105 29.9302941 21.6337661 24.9049493 50.62453 24.9049493"></polygon><path d="M19.57671,36.5347695 C19.57671,37.2379617 19.0309267,37.808908 18.357285,37.808908 L13.5031211,37.808908 C12.8301156,37.808908 12.2843322,37.2379617 12.2843322,36.5347695 L12.2843322,36.2791788 C12.2843322,35.5753508 12.8301156,35.0056761 13.5031211,35.0056761 L18.357285,35.0056761 C19.0309267,35.0056761 19.57671,35.5753508 19.57671,36.2791788 L19.57671,36.5347695 Z" id="Fill-34" fill="#B3B3B3" opacity="0.4"></path><path d="M38.0484861,30.6952858 C37.5574083,31.1447948 36.90285,31.4194594 36.1846806,31.4194594 C34.6580139,31.4194594 33.4207778,30.1821971 33.4207778,28.6569185 C33.4207778,27.1322757 34.6580139,25.8937419 36.1846806,25.8937419 C37.7107111,25.8937419 38.9479472,27.1322757 38.9479472,28.6569185" id="Stroke-35" stroke="#484848" stroke-width="0.954166667" stroke-linecap="round"></path><path d="M38.6330722,28.6568549 C38.6330722,30.0085608 37.5364167,31.104676 36.1846806,31.104676 C34.8323083,31.104676 33.7356528,30.0085608 33.7356528,28.6568549 C33.7356528,27.3057849 34.8323083,26.2090339 36.1846806,26.2090339 C37.5364167,26.2090339 38.6330722,27.3057849 38.6330722,28.6568549" id="Fill-36" fill="#F7D032"></path><g id="Group-39" opacity="0.4" transform="translate(0.266667, 47.116732)" stroke="#AFAFAF" stroke-width="0.954166667" stroke-linecap="round"><path d="M0.283896389,0 L64.5673769,0" id="Stroke-37"></path><path d="M67.0370147,0 L72.2442203,0" id="Stroke-38"></path></g><path d="M58.8544083,15.4714922 C59.0745028,15.2858393 59.3594806,15.1739389 59.6699028,15.1739389 L63.5883472,15.1739389 C64.2880694,15.1739389 64.8548444,15.7410704 64.8548444,16.4391763 L64.8548444,18.6746409 C64.8548444,19.3740183 64.2880694,19.9392424 63.5883472,19.9392424 L60.9255861,19.9392424" id="Stroke-40" stroke="#484848" stroke-width="0.954166667" stroke-linecap="round"></path><path d="M11.2948614,19.9965914 L8.65372806,19.9965914 C7.95464194,19.9965914 7.38723083,19.428824 7.38723083,18.731354 L7.38723083,16.4965252 C7.38723083,15.7971478 7.95464194,15.2306521 8.65372806,15.2306521 L12.5721725,15.2306521 C12.8851392,15.2306521 13.1713892,15.3444598 13.3927558,15.5320202" id="Stroke-41" stroke="#484848" stroke-width="0.954166667" stroke-linecap="round"></path><polyline id="Stroke-42" stroke="#484848" stroke-width="0.954166667" stroke-linecap="round" points="47.7140672 29.5640111 51.1719672 22.8569815 60.4598256 22.8569815"></polyline><polyline id="Stroke-43" stroke="#AFAFAF" stroke-width="0.538786111" opacity="0.4" stroke-linecap="round" points="11.8933783 47.0558857 12.7432228 46.2051884 11.8933783 45.3557627 12.7432228 44.5057012 11.8933783 43.6556398 12.7432228 42.8074857 11.8933783 41.95806"></polyline><polyline id="Stroke-44" stroke="#AFAFAF" stroke-width="0.538786111" opacity="0.4" stroke-linecap="round" points="13.8009483 47.0558857 14.6507928 46.2051884 13.8009483 45.3557627 14.6507928 44.5057012 13.8009483 43.6556398 14.6507928 42.8074857 13.8009483 41.95806"></polyline><polyline id="Stroke-45" stroke="#AFAFAF" stroke-width="0.538786111" opacity="0.4" stroke-linecap="round" points="15.7089636 47.0558857 16.5588081 46.2051884 15.7089636 45.3557627 16.5588081 44.5057012 15.7089636 43.6556398 16.5588081 42.8074857 15.7089636 41.95806"></polyline><polyline id="Stroke-46" stroke="#AFAFAF" stroke-width="0.538786111" opacity="0.4" stroke-linecap="round" points="55.2573272 47.0558857 56.1071717 46.2051884 55.2573272 45.3557627 56.1071717 44.5057012 55.2573272 43.6556398 56.1071717 42.8074857 55.2573272 41.95806"></polyline><polyline id="Stroke-47" stroke="#AFAFAF" stroke-width="0.538786111" opacity="0.4" stroke-linecap="round" points="57.1650881 47.0558857 58.0149325 46.2051884 57.1650881 45.3557627 58.0149325 44.5057012 57.1650881 43.6556398 58.0149325 42.8074857 57.1650881 41.95806"></polyline><polyline id="Stroke-48" stroke="#AFAFAF" stroke-width="0.538786111" opacity="0.4" stroke-linecap="round" points="59.0729125 47.0558857 59.9227569 46.2051884 59.0729125 45.3557627 59.9227569 44.5057012 59.0729125 43.6556398 59.9227569 42.8074857 59.0729125 41.95806"></polyline><path d="M22.2530203,41.9583143 L11.7978981,41.9583143 C10.0594064,41.9583143 8.64978417,40.5493867 8.64978417,38.8123875 L8.64978417,26.0029719 C8.64978417,24.2647011 10.0594064,22.8570451 11.7978981,22.8570451 L21.0857564,22.8570451 L24.5436564,29.5640746" id="Stroke-49" stroke="#484848" stroke-width="0.954166667" stroke-linecap="round"></path><path d="M20.4886389,6.66283346 L51.5855667,6.66283346 L51.0804944,5.11720934 C50.6689306,4.10120467 50.2351028,3.23143346 49.1931528,3.23143346 L23.0827,3.23143346 C22.0394778,3.23143346 21.6043778,4.0656 21.1947222,5.11720934" id="Fill-50" fill="#B3B3B3" opacity="0.4"></path><polygon id="Fill-51" fill="#B3B3B3" opacity="0.4" points="10.0163417 43.5944125 18.5993889 43.5944125 18.5993889 41.9585051 10.0163417 41.9585051"></polygon><polygon id="Fill-52" fill="#B3B3B3" opacity="0.4" points="53.0314472 43.5944125 61.6144944 43.5944125 61.6144944 41.9585051 53.0314472 41.9585051"></polygon><path d="M60.2884572,22.8570451 C62.0269489,22.8570451 63.4365711,24.2647011 63.4365711,26.0029719 L63.4365711,38.8123875 C63.4365711,40.5493867 62.0269489,41.9583143 60.2884572,41.9583143 L24.5434656,41.9583143" id="Stroke-53" stroke="#484848" stroke-width="0.954166667" stroke-linecap="round"></path><path d="M19.2895694,29.3088019 C19.2895694,31.2206454 17.7387306,32.771356 15.8253083,32.771356 C13.9118861,32.771356 12.3610472,31.2206454 12.3610472,29.3088019 C12.3610472,27.3956867 13.9118861,25.8462478 15.8253083,25.8462478 C17.7387306,25.8462478 19.2895694,27.3956867 19.2895694,29.3088019 L19.2895694,29.3088019 Z" id="Stroke-54" stroke="#484848" stroke-width="0.954166667" stroke-linecap="round"></path><path d="M39.5133228,15.1890073 C39.5133228,12.2223754 41.919095,9.81842444 44.8859172,9.81842444 C47.8533756,9.81842444 50.2585117,12.2223754 50.2585117,15.1890073" id="Stroke-55" stroke="#AFAFAF" stroke-width="1.27222222" opacity="0.4" stroke-linecap="round"></path><path d="M23.4372047,15.1890073 C23.4372047,12.2223754 25.8429769,9.81842444 28.8097992,9.81842444 C31.7772575,9.81842444 34.1823936,12.2223754 34.1823936,15.1890073" id="Stroke-56" stroke="#AFAFAF" stroke-width="1.27222222" opacity="0.4" stroke-linecap="round"></path><path d="M59.9975636,36.5347695 C59.9975636,37.2379617 59.4517803,37.808908 58.7781386,37.808908 L53.9239747,37.808908 C53.2509692,37.808908 52.7051858,37.2379617 52.7051858,36.5347695 L52.7051858,36.2791788 C52.7051858,35.5753508 53.2509692,35.0056761 53.9239747,35.0056761 L58.7781386,35.0056761 C59.4517803,35.0056761 59.9975636,35.5753508 59.9975636,36.2791788 L59.9975636,36.5347695 Z" id="Fill-57" fill="#B3B3B3" opacity="0.4"></path><path d="M59.7106139,29.3088019 C59.7106139,31.2206454 58.159775,32.771356 56.2463528,32.771356 C54.3329306,32.771356 52.7820917,31.2206454 52.7820917,29.3088019 C52.7820917,27.3956867 54.3329306,25.8462478 56.2463528,25.8462478 C58.159775,25.8462478 59.7106139,27.3956867 59.7106139,29.3088019 L59.7106139,29.3088019 Z" id="Stroke-58" stroke="#484848" stroke-width="0.954166667" stroke-linecap="round"></path></g></g></g></g></g></svg>